<svg id="Tube" xmlns="http://www.w3.org/2000/svg" viewBox="0 0 1785 1537.3"><defs><style>.cls-1,.cls-2{fill:#fff;}.cls-2{font-size:250px;font-family:Swiss721BT-BlackCondensed, Swis721 BlkCn BT;font-weight:800;}</style></defs><path class="cls-1" d="M805.6,394.5c0,.5,8.3,9.5,18.4,20.1,21.8,22.6,29.1,31.9,36,45.8,7.9,15.9,10.7,27.7,11.8,50.9.5,7.6,1,56.2,1.3,108s.6,105.3.8,119.1l.5,25.1L743,960.5c-118.3,177.3-132.1,198.3-137.4,209-11.9,24.1-17.3,41.4-21.4,66.9-2.6,17.2-1.8,39,2,54.8,1.5,6.5,6,18.5,9.8,26,16.6,33.8,46.9,55.2,85.8,60.9,8.6,1.3,48.7,1.5,432.7,2.4l201.3.5,13.1-1.7c15.6-2,24.3-3.8,35-7.4,33.1-11,58.1-34.2,69.6-64.6,5-13.7,9-35.7,8.1-46.4a206.3,206.3,0,0,0-8-42.8c-6.6-21.9-20.7-48.5-37.2-70.6-4.2-5.5-237.3-362-247.7-378.6l-2.8-4.7-.9-38.1c-1.5-66.2-3.8-168.5-4.3-190.5-.9-40.1,2.2-58.6,13.1-79.2,7.3-13.8,11.5-19.1,35.5-45,7.6-8.2,14.3-15.6,14.9-16.4s-8.5-1.3-198.8-1.3C861.7,393.7,805.6,393.9,805.6,394.5Zm328.1,32.3c.3.3-1.3,3.6-3.6,7.1-10.9,17.6-17.1,36.5-19.9,60.8-.6,4.5-1.1,18.4-1.1,30.8v22.8l-42.8.4c-42.5.4-42.8.4-46.1,2.1a15.5,15.5,0,0,0-4.6,23.9c5.1,5.8,3.5,5.6,51.3,5.6,33.4,0,42.7.2,42.9.9s3.4,124.3,3,125-18.8.6-41.4.6-43,.3-45.5.8c-8.8,1.3-13.9,7.1-13.9,15.4a15.5,15.5,0,0,0,6.7,12.9l3.1,2.1,45.1.3c27.7,0,45.5.4,46,.9s1.1,6.4,1.4,18.1l.5,17.4,30.9,47.4c17.1,26.1,30.7,47.7,30.5,48.2s-15,.8-42,.8c-43.7,0-44.4,0-49.3,3.6-7.5,5.6-7.5,18.7,0,24.4,4.7,3.6,6.6,3.7,56.6,3.4l47-.2,3.4-1.8c1.9-1,3.6-1.5,4-1.1s44.2,67.4,45.4,69.7l9.4,14.7c4.6,7.1,8.4,13,8.4,13.3s-20.1.5-44.5.6c-44.3.2-44.6.2-47.8,1.9-11.5,6.2-11.8,22.5-.3,28.6l3.3,1.7h48.9c52.8,0,51,.2,55.6-4a4.3,4.3,0,0,1,2.4-1.3c1,.4,64.9,98.2,64.9,99.3s-14.1.9-42.2,1.1l-42.3.2-3.6,2.1a17.9,17.9,0,0,0-7.9,11.2c-1.3,6.3,3.1,14.4,9.2,17.2,2.9,1.3,6.1,1.5,51.6,1.5s48.5-.1,51.5-1.6l3.4-1.5c.1,0,12.8,17.3,16.6,22.8,8.5,12,19.7,34,24.2,47.8,12,36.7,8.4,68.3-10.3,91.6q-19.5,24-59.3,30.3c-7.6,1.2-30.7,1.3-323.3,1.2-269.8-.2-316.1-.3-322.8-1.4-55.7-8-83.1-59.1-66.7-124.6a183.6,183.6,0,0,1,14.7-38c4.8-9.6,17.5-29.1,74.6-114.7,37.8-56.7,68.8-103.3,68.8-103.6s28.8-43.5,64-96.3l64-95.9-.8-77.8c-1.7-174.8-2.1-198.4-3.3-206.2-3.6-22.1-9.6-38.3-20-55.1-2.4-3.8-4.1-7.2-3.9-7.5S1133.1,425.9,1133.7,426.8Z" transform="translate(-120.2 -219.7)"/><text class="cls-2" transform="translate(0 1478.4)">MESTRE EXAMES</text><circle class="cls-1" cx="828.6" cy="138.8" r="27.4"/><circle class="cls-1" cx="855.7" cy="44" r="29"/><circle class="cls-1" cx="1005.6" cy="28.3" r="28.3"/><circle class="cls-1" cx="953.5" cy="117" r="39.4"/><circle class="cls-1" cx="925.1" cy="56.7" r="14.3"/><circle class="cls-1" cx="953.7" cy="41.7" r="14.3"/></svg>